<?xml version="1.0" standalone="no"?>
<!DOCTYPE svg PUBLIC "-//W3C//DTD SVG 20010904//EN"
 "http://www.w3.org/TR/2001/REC-SVG-20010904/DTD/svg10.dtd">
<svg version="1.0" xmlns="http://www.w3.org/2000/svg"
 width="500.000000pt" height="500.000000pt" viewBox="0 0 500.000000 500.000000"
 preserveAspectRatio="xMidYMid meet">

<g transform="translate(0.000000,500.000000) scale(0.100000,-0.100000)"
fill="#000000" stroke="none">
<path d="M0 2500 l0 -2500 2500 0 2500 0 0 2500 0 2500 -2500 0 -2500 0 0
-2500z m3815 470 c0 -16 -6 -26 -19 -28 -13 -3 -17 0 -13 11 4 10 -2 17 -15
20 -29 8 -12 29 20 25 21 -2 27 -8 27 -28z m-355 -54 c0 -34 0 -34 39 -29 33
5 44 1 65 -20 23 -23 26 -34 26 -102 l0 -75 -40 0 -39 0 -3 63 c-3 54 -5 62
-23 62 -18 0 -20 -8 -23 -62 l-3 -63 -39 0 -40 0 0 130 0 130 40 0 c39 0 40
-1 40 -34z m315 14 c25 -28 12 -36 -31 -21 -26 9 -39 10 -47 2 -12 -12 -47
-15 -47 -4 0 3 7 15 17 25 23 25 84 24 108 -2z m-1561 -4 c107 -45 100 -195
-12 -226 -20 -5 -67 -10 -104 -10 l-68 0 0 125 0 125 75 0 c42 0 90 -6 109
-14z m344 -22 c2 -19 -3 -36 -12 -44 -12 -9 -16 -32 -16 -91 l0 -78 -82 0
c-115 1 -128 13 -128 121 l0 79 38 -3 37 -3 3 -62 c3 -54 6 -63 21 -63 24 0
31 19 31 80 0 46 2 49 28 52 16 2 27 9 27 18 0 42 49 36 53 -6z m212 2 c0 -19
-4 -37 -9 -41 -6 -3 -4 -18 4 -38 7 -17 11 -44 8 -59 -16 -86 -168 -106 -208
-27 -22 42 -18 75 13 110 24 27 37 33 85 37 46 4 57 8 57 22 0 10 6 21 13 23
29 12 37 6 37 -27z m556 1 c26 -30 31 -75 13 -109 -12 -22 -66 -48 -103 -48
-19 0 -25 -6 -28 -27 -3 -25 -7 -28 -45 -31 l-43 -3 0 126 0 127 91 -4 c85 -3
92 -5 115 -31z m-354 -46 l33 -30 -34 -14 c-25 -11 -39 -12 -52 -4 -36 23 -69
-24 -35 -52 14 -12 46 -5 46 10 0 5 15 1 34 -8 39 -18 38 -36 -5 -58 -53 -28
-135 -10 -159 34 -13 25 -13 77 0 101 15 28 59 49 102 50 28 0 46 -8 70 -29z
m793 19 c35 -13 57 -68 53 -133 l-3 -52 -37 -3 c-26 -2 -38 1 -38 9 0 10 -3
10 -12 1 -22 -22 -75 -14 -97 14 -27 34 -26 40 4 69 17 17 35 25 60 25 24 0
34 4 29 11 -4 7 -20 8 -42 4 -35 -7 -51 4 -52 33 0 27 84 41 135 22z m256 -6
c9 -11 15 -11 32 1 32 22 74 18 102 -10 22 -21 25 -33 25 -100 l0 -75 -40 0
-40 0 0 60 c0 45 -4 62 -15 67 -23 8 -28 -2 -33 -67 l-4 -60 -39 0 -38 0 -3
63 c-2 47 -7 62 -18 62 -11 0 -16 -15 -18 -62 l-3 -63 -39 0 -40 0 0 99 0 99
80 0 c54 0 83 -5 91 -14z m-1337 -209 c27 -28 -10 -69 -40 -44 -17 14 -18 31
-2 47 16 16 23 15 42 -3z m-764 -86 c0 -22 -9 -87 -21 -142 -76 -378 -275
-658 -574 -811 -38 -20 -73 -36 -78 -36 -11 0 137 290 209 408 96 157 168 254
264 356 l85 90 -60 -46 c-231 -176 -438 -458 -536 -730 -13 -38 -27 -68 -30
-68 -3 0 -9 24 -13 53 -44 373 136 687 504 872 76 39 215 94 238 95 8 0 12
-15 12 -41z m548 -260 l24 -29 -29 0 c-17 0 -43 12 -63 30 l-35 29 40 0 c32 0
45 -6 63 -30z m-283 -60 c15 -38 30 -68 33 -64 3 3 17 33 32 68 25 61 26 62
69 65 51 4 52 20 -17 -146 l-47 -112 -43 2 -43 3 -50 117 c-27 65 -49 122 -49
128 0 5 20 10 43 10 l44 0 28 -71z m307 7 c39 -9 58 -52 58 -131 l0 -65 -40 0
c-24 0 -40 5 -40 12 0 9 -3 9 -12 0 -19 -19 -76 -14 -98 8 -43 43 -9 100 60
100 23 0 40 5 40 11 0 8 -15 10 -44 7 -39 -5 -45 -3 -55 18 -12 27 -6 33 43
44 31 8 36 7 88 -4z m258 4 c5 0 18 -10 30 -22 17 -18 20 -35 20 -100 l0 -78
-40 0 -39 0 -3 63 c-3 54 -6 62 -24 65 -25 4 -34 -19 -34 -85 l0 -43 -40 0
-40 0 0 100 0 101 60 -3 c32 -1 62 1 67 5 4 4 13 5 21 2 7 -3 18 -5 22 -5z
m258 -1 l54 2 -4 -105 c-3 -98 -5 -108 -29 -131 -28 -28 -80 -41 -131 -31 -53
10 -62 19 -48 47 7 13 14 25 15 27 1 1 15 -2 31 -8 31 -12 74 -6 74 11 0 7
-11 8 -29 4 -34 -7 -85 15 -101 44 -13 26 -13 77 1 102 14 26 68 50 94 42 11
-4 44 -6 73 -4z"/>
<path d="M2120 2815 c0 -54 1 -55 29 -55 34 0 54 20 54 55 0 35 -20 55 -54 55
-28 0 -29 -1 -29 -55z"/>
<path d="M2646 2815 c-19 -20 -20 -26 -3 -49 17 -23 47 -11 47 19 0 34 -24 50
-44 30z"/>
<path d="M3210 2845 c0 -20 5 -25 24 -25 24 0 41 23 30 41 -3 5 -16 9 -30 9
-19 0 -24 -5 -24 -25z"/>
<path d="M3697 2764 c-9 -10 2 -24 19 -24 8 0 14 7 14 15 0 15 -21 21 -33 9z"/>
<path d="M2425 2141 c-3 -5 -1 -12 5 -16 12 -7 30 2 30 16 0 12 -27 12 -35 0z"/>
<path d="M2920 2195 c-10 -12 -10 -18 0 -30 7 -8 18 -15 25 -15 7 0 18 7 25
15 10 12 10 18 0 30 -7 8 -18 15 -25 15 -7 0 -18 -7 -25 -15z"/>
</g>
</svg>
